<svg viewBox="0 0 512.038 512.038" xmlns="http://www.w3.org/2000/svg">
    <path fill="#5bbb4d" d="m483.323 113.568-58.335 15.909-15.909 58.335c-.004.003-70.713 28.287-70.713 28.287l10.607 10.607 74.246-10.607 81.317-81.317z"/>
    <path fill="#88c94f" d="M377.257 7.502 295.94 88.82l-10.607 74.246 10.607 53.033 53.033 10.607 60.102-38.891-49.495 7.071-42.426-42.426 7.071-49.497 48.642-.007a36.222 36.222 0 0 1 25.604 10.614 36.203 36.203 0 0 1 10.607 25.597v48.648l74.246-74.245z"/>
    <path fill="#ffeb6b" d="m242.86 205.502 42.42-42.42 63.63 63.63-42.42 42.42z"/>
    <path fill="#5bbb4d" d="m302.664 323.219 25.095-75.3-152.905 89.265 106.066 21.213a89.983 89.983 0 0 0 21.744-35.178z"/>
    <path fill="#88c94f" d="M259.708 337.184h-84.853l-21.213-106.066a90.003 90.003 0 0 1 35.179-21.744l75.3-25.095 63.64 63.64-41.832 58.563c-7.363 10.316-16.343 20.824-26.221 30.702z"/>
    <path fill="#5bbb4d" d="M161.292 350.746 19.086 492.952a29.769 29.769 0 0 0 14.955 8.096c53.358 11.172 109.326-5.098 148.464-44.237z"/>
    <path fill="#88c94f" d="M55.226 329.533C16.088 368.671-.182 424.639 10.99 477.997a29.769 29.769 0 0 0 8.096 14.955c2.68 2.68 6.505 4.214 11.116 4.257 42.603.417 91.952-22.472 131.09-61.61v-84.853z"/>
    <path fill="#ffd56b" d="m280.921 358.397-21.213 21.213h-84.853l84.853-42.426z"/>
    <path fill="#ffeb6b" d="m259.708 337.184-63.64 63.639-63.64-148.492 21.214-21.213z"/>
    <path fill="#88c94f" d="m259.708 379.61-77.202 77.202-21.214-21.213-3.825-81.027 81.027 3.825z"/>
    <path fill="#a9d656" d="m55.187 329.514 77.19-77.19 106.05 106.05-77.19 77.19z"/>
    <path d="M92.352 324.228a7.5 7.5 0 1 0 10.607 10.607 7.5 7.5 0 0 0-10.607-10.607zm53.033 53.033a7.5 7.5 0 1 0-10.607-10.607 7.5 7.5 0 0 0 10.607 10.607zm42.426 42.427a7.5 7.5 0 1 0-10.607-10.607 7.5 7.5 0 0 0 10.607 10.607z"/>
    <path d="M509.841 129.476 382.562 2.197a7.5 7.5 0 0 0-10.608 0l-81.316 81.317a7.497 7.497 0 0 0-2.121 4.243l-10.253 71.771-18.193 18.194-73.623 24.541c-14.285 4.761-27.463 12.906-38.111 23.554l-21.17 21.169a7.499 7.499 0 0 0-.044 10.65L249.1 379.612l-66.592 66.592L65.835 329.532l50.682-50.683a7.5 7.5 0 0 0-10.607-10.606l-55.985 55.986C9.126 365.029-8.174 423.087 3.65 479.536a37.291 37.291 0 0 0 28.853 28.853 171.264 171.264 0 0 0 35.119 3.649c44.643 0 87.842-17.576 120.19-49.924l98.411-98.412c10.646-10.647 18.791-23.825 23.554-38.111l24.541-73.624 18.192-18.193 71.771-10.253a7.496 7.496 0 0 0 4.243-2.122l81.317-81.317a7.5 7.5 0 0 0 0-10.606zM35.577 493.708a22.289 22.289 0 0 1-17.246-17.247c-10.267-49.018 3.566-99.358 37.037-136.182l116.393 116.393c-36.823 33.471-87.164 47.303-136.184 37.036zm107.456-241.375 10.607-10.606 116.672 116.672-10.606 10.606zm152.512 68.515c-3.238 9.713-8.327 18.819-14.875 26.697L164.494 231.368c7.878-6.548 16.984-11.637 26.697-14.875l70.906-23.635 57.084 57.084zm32.216-83.539-53.032-53.032 10.606-10.607 53.032 53.033zm91.924-28.284-68.059 9.723-58.335-58.336 9.723-68.059 74.245-74.247 116.673 116.673z"/>
    <path d="M324.226 95.459a7.502 7.502 0 0 0-7.425 6.439l-7.071 49.498a7.5 7.5 0 0 0 2.121 6.364l42.427 42.426a7.5 7.5 0 0 0 6.365 2.122l49.497-7.071a7.5 7.5 0 0 0 6.439-7.425l-.001-48.641c0-11.676-4.547-22.653-12.802-30.908-8.256-8.256-19.233-12.804-30.91-12.804zm6.505 15h42.135c5.101 0 9.995 1.328 14.298 3.808l-48.796 48.796-13.258-13.258zm31.502 76.469-13.258-13.258 48.795-48.795a28.54 28.54 0 0 1 3.807 14.296l.001 42.136z"/>
</svg>
