<svg xml:space="preserve" viewBox="0 0 512 512" xmlns="http://www.w3.org/2000/svg">
    <circle cx="256" cy="256" r="256" fill="#733c82"/>
    <path fill="#4b285a" d="M512 256c0-5.199-.174-10.357-.479-15.479L331 60 165.315 429.819l82.019 82.019c2.878.096 5.764.162 8.666.162 141.385 0 256-114.615 256-256z"/>
    <path fill="#ff4682" d="M181 60h150v213.84H181z"/>
    <path fill="#c42364" d="M255.95 60H331v213.84h-75.05z"/>
    <path fill="#c42364" d="M219.67 60h72.67v213.84h-72.67z"/>
    <path fill="#b40a5a" d="M255.95 60h36.38v213.84h-36.38z"/>
    <path fill="#ffeb50" d="m255.952 150.815 45.391 91.778 101.389 14.732-73.366 71.514 17.319 100.98-90.733-47.651-90.637 47.651 17.319-100.98-73.366-71.514 101.389-14.732z"/>
    <path fill="#f7d139" d="m402.732 257.325-101.389-14.732-45.391-91.778v231.353l90.733 47.651-17.319-100.98z"/>
</svg>
