<svg viewBox="0 0 512 512" xmlns="http://www.w3.org/2000/svg">
    <path d="M384.697 347.857c-7.325-6.31-10.496-16.077-8.247-25.615 5.094-21.64-10.203-42.891-32.592-44.738a25.73 25.73 0 0 1-21.726-15.796c-8.593-20.614-33.584-28.751-52.657-17.108-2.559 1.556-5.318 2.573-8.143 3.168v-24.499h13.615c14.698 0 26.657-11.959 26.657-26.657v-20.398l30.957-14.23c11.938-5.493 18.149-19.133 14.437-31.738l-32.64-111.015C311.047 7.964 300.525.098 288.784.098h-65.569c-11.74 0-22.262 7.867-25.574 19.133l-32.639 111.016c-3.712 12.605 2.499 26.245 14.437 31.738l30.957 14.23v20.398c0 14.698 11.959 26.657 26.657 26.657h13.615v24.478c-2.804-.602-5.545-1.62-8.091-3.174-18.989-11.537-43.957-3.66-52.683 17.165-3.733 8.934-12.048 14.974-21.794 15.77-22.061 1.821-37.693 22.808-32.493 44.869 2.213 9.403-.958 19.17-8.398 25.584-16.863 14.519-16.962 40.671.115 55.385 7.325 6.31 10.496 16.077 8.263 25.553-5.095 21.597 10.149 42.893 32.602 44.744 9.658.791 17.972 6.831 21.742 15.848 8.594 20.517 33.478 28.751 52.694 17.046 8.278-5.045 18.561-5.05 26.881.01 19.049 11.58 43.999 3.509 52.626-17.124 3.733-8.945 12.058-14.989 21.789-15.786 22.169-1.829 37.668-22.918 32.498-44.853l-.016-.057c-2.187-9.403.994-19.144 8.367-25.485 16.759-14.41 17.106-40.576-.073-55.386zM304.133 22.24l32.639 111.016c2.223 7.56-1.505 15.749-8.669 19.045-20.347 9.315-63.876 29.493-66.772 30.522V10.76h27.453c7.045 0 13.36 4.722 15.349 11.48zM175.228 133.255 207.867 22.24c1.989-6.758 8.304-11.48 15.348-11.48h27.453v172.063c-3.069-1.09 3.054 1.444-66.772-30.522-7.163-3.296-10.891-11.486-8.668-19.046zm45.832 63.357v-15.497l23.804 10.942a26.617 26.617 0 0 0 22.273 0l23.804-10.942v15.497c0 8.82-7.174 15.994-15.994 15.994h-37.892c-8.821 0-15.995-7.174-15.995-15.994zm156.702 198.597c-10.361 8.908-14.854 22.71-11.725 36.018l.031.125c3.609 15.295-7.197 30.36-23.095 31.66-13.646 1.125-25.402 9.668-30.686 22.309-6.068 14.544-23.694 20.338-37.272 12.094-11.709-7.112-26.235-7.112-37.986.042-13.5 8.235-31.152 2.523-37.293-12.162-5.279-12.625-17.03-21.159-30.749-22.289-15.735-1.288-26.651-16.259-23.002-31.728 3.134-13.292-1.354-27.094-11.818-36.111-11.933-10.286-12.016-28.772.125-39.23 10.34-8.919 14.823-22.715 11.662-36.143-3.589-15.255 7.149-30.357 23.111-31.66 13.641-1.125 25.392-9.658 30.707-22.367 6.117-14.624 23.785-20.279 37.288-12.068 11.714 7.143 26.251 7.138 37.965.005 13.434-8.213 31.159-2.537 37.272 12.11 5.274 12.646 17.03 21.195 30.749 22.325 15.79 1.293 26.648 16.289 22.991 31.79-3.129 13.292 1.348 27.084 11.792 36.091 11.892 10.244 12.042 28.766-.067 39.189z"/>
    <path d="M255.969 289.025c-47.722 0-86.546 38.824-86.546 86.546s38.824 86.551 86.546 86.551c47.758 0 86.608-38.829 86.608-86.551s-38.85-86.546-86.608-86.546zm0 162.434c-41.844 0-75.883-34.045-75.883-75.888s34.039-75.883 75.883-75.883c41.875 0 75.945 34.039 75.945 75.883s-34.07 75.888-75.945 75.888z"/>
    <path d="m294.574 352.809-19.987-2.952-8.924-18.061c-3.944-7.989-15.371-8.011-19.326 0l-9.012 18.129-19.904 2.884c-8.829 1.282-12.371 12.153-5.972 18.384l14.448 14.151-3.405 19.857c-1.502 8.765 7.706 15.522 15.645 11.355l17.915-9.366 17.816 9.371c7.908 4.135 17.145-2.571 15.64-11.366l-3.405-19.852c.188-.536 13.914-13.641 14.448-14.151 6.384-6.215 2.879-17.099-5.977-18.383zm-15.879 24.798a10.772 10.772 0 0 0-3.098 9.538l3.233 19.977-17.806-9.366a10.755 10.755 0 0 0-10.043 0l-17.983 9.241 3.405-19.852a10.772 10.772 0 0 0-3.098-9.538l-14.349-14.25 19.894-2.879a10.777 10.777 0 0 0 8.122-5.894l9.132-18.061 8.924 18.061a10.759 10.759 0 0 0 8.117 5.888l19.961 3.087z"/>
</svg>
