<svg viewBox="0 0 512 512" xmlns="http://www.w3.org/2000/svg">
    <path d="M506.22 4.844c-15.752-15.755-61.524 11.86-73.178 23.512l-44.279 44.282c-6.21-2.344-13.711-1.116-18.544 3.716l-60.809 60.81-22.748-1.415h-.003a29.105 29.105 0 0 0-22.411 8.481l-92.996 92.996a29.141 29.141 0 0 0-8.479 22.408l1.413 22.754-44.112 44.113-90.876-12.585a17.291 17.291 0 0 0-14.56 4.884l-8.557 8.554c-6.719 6.716-6.719 17.655 0 24.382l44.381 44.377-23.461 23.462-5.845-5.846c-2.083-2.083-5.456-2.083-7.539 0s-2.083 5.456 0 7.539l18.909 18.911-13.299 13.301c-6.738 6.732-6.739 17.643 0 24.376l13.984 13.984c6.728 6.722 17.657 6.716 24.379 0l13.299-13.297 18.908 18.909c2.082 2.082 5.456 2.083 7.539 0s2.083-5.456 0-7.539l-5.845-5.846 23.462-23.462 46.25 46.25c6.741 6.736 17.67 6.703 24.379 0l8.559-8.554c3.795-3.801 5.62-9.241 4.884-14.552-3.365-24.183-12.788-92.829-13.117-94.098l42.771-42.771 22.75 1.415a29.137 29.137 0 0 0 22.413-8.481l92.994-92.996a29.154 29.154 0 0 0 8.481-22.413l-1.415-22.748 60.81-60.81c5.027-5.027 6.289-12.409 3.796-18.624l44.199-44.196c11.656-11.659 39.265-57.428 23.513-73.183zM13.621 334.892l8.559-8.554a6.58 6.58 0 0 1 5.55-1.864l82.888 11.48L58 388.57l-44.377-44.374c-2.564-2.567-2.566-6.742-.002-9.304zm174.841 150.319a6.6 6.6 0 0 1-1.861 5.55l-8.557 8.554c-2.567 2.562-6.74 2.562-9.301 0l-44.379-44.379 52.621-52.616zm-15.047-226.238a18.477 18.477 0 0 1 5.376-14.208l92.999-92.996c3.555-3.56 8.571-5.687 14.211-5.378l13.352.83-125.107 125.107zM50.053 484.3c-2.562 2.562-6.74 2.562-9.301 0l-13.984-13.984a6.571 6.571 0 0 1 0-9.299l13.298-13.301 23.287 23.287zm314.624-259.236a18.481 18.481 0 0 1-5.378 14.213l-92.996 92.996a18.381 18.381 0 0 1-14.213 5.378l-13.352-.83 125.109-125.109zm62.497-91.758c-432.901 432.808 36.151-36.168-343.22 343.22-38.017-38.02-48.653-48.655-49.413-49.415C415.006 46.659-54.155 515.893 377.758 83.893c2.483-2.478 6.815-2.478 9.299 0l40.118 40.115c1.242 1.244 1.926 2.894 1.926 4.649s-.685 3.405-1.927 4.649zm4.774-19.602-34.589-34.586 43.221-43.223c12.808-12.808 50.687-30.921 58.101-23.512 7.424 7.43-10.704 45.296-23.512 58.103z"/>
    <path d="m337.976 165.549-217.13 217.132a5.329 5.329 0 0 0 0 7.539 5.33 5.33 0 0 0 7.539 0l217.13-217.132a5.33 5.33 0 1 0-7.539-7.539z"/>
</svg>
