<svg viewBox="0 0 512 512" xmlns="http://www.w3.org/2000/svg">
    <path d="M373.193 5.305H138.807c-17.639 0-31.988 14.349-31.988 31.988v323.686c0 8.601 3.543 16.973 9.718 22.965L233.73 497.61c12.497 12.116 32.05 12.11 44.541 0l117.193-113.666c6.175-5.993 9.718-14.364 9.718-22.965V37.293c-.001-17.639-14.35-31.988-31.989-31.988zm21.325 355.674a21.443 21.443 0 0 1-6.479 15.312L270.846 489.957c-8.325 8.07-21.367 8.07-29.692 0L123.961 376.291a21.443 21.443 0 0 1-6.479-15.312V37.293c0-11.761 9.567-21.325 21.325-21.325h234.386c11.759 0 21.325 9.564 21.325 21.325z"/>
    <path d="M353.476 300.725 256 395.273l-97.476-94.548c-3.38-3.283-9.043-.865-9.043 3.827v49.69a5.33 5.33 0 0 0 1.619 3.827l101.189 98.151a5.331 5.331 0 0 0 7.424 0l101.189-98.151a5.33 5.33 0 0 0 1.619-3.827v-49.69c-.001-4.692-5.667-7.112-9.045-3.827zm-1.619 51.262L256 444.963l-95.857-92.976v-34.836l92.145 89.378a5.324 5.324 0 0 0 7.424 0l92.145-89.378z"/>
    <path d="M353.476 199.373 256 293.916l-97.476-94.543c-3.394-3.297-9.043-.85-9.043 3.827v49.684a5.33 5.33 0 0 0 1.619 3.827l101.189 98.151a5.331 5.331 0 0 0 7.424 0l101.189-98.151a5.33 5.33 0 0 0 1.619-3.827V203.2c-.001-4.698-5.668-7.112-9.045-3.827zm-1.619 51.257L256 343.605l-95.857-92.976v-34.831l92.145 89.373a5.324 5.324 0 0 0 7.424 0l92.145-89.373z"/>
    <path d="M353.476 98.015 256 192.563l-97.476-94.548c-3.394-3.297-9.043-.85-9.043 3.827v49.69a5.33 5.33 0 0 0 1.619 3.827l101.189 98.145a5.331 5.331 0 0 0 7.424 0l101.189-98.145a5.33 5.33 0 0 0 1.619-3.827v-49.69c-.001-4.697-5.668-7.112-9.045-3.827zm-1.619 51.262L256 242.247l-95.857-92.97v-34.836l92.145 89.378a5.324 5.324 0 0 0 7.424 0l92.145-89.378zM176.915 80.506h158.17a5.33 5.33 0 0 0 5.331-5.331V46.628a5.33 5.33 0 0 0-5.331-5.331h-158.17a5.33 5.33 0 0 0-5.331 5.331v28.547a5.33 5.33 0 0 0 5.331 5.331zm5.331-28.547h147.507v17.884H182.246z"/>
</svg>
