<svg viewBox="0 0 512 512" xmlns="http://www.w3.org/2000/svg">
    <path d="m140.098 224.5-27.612-4.009a7.605 7.605 0 0 1-5.745-4.176l-12.394-25.079c-6.711-13.58-26.086-13.601-32.813 0L49.143 216.32a7.636 7.636 0 0 1-5.753 4.176L15.783 224.5C.774 226.672-5.221 245.131 5.636 255.712l20 19.493a7.629 7.629 0 0 1 2.194 6.758l-4.722 27.563c-2.551 14.892 13.09 26.364 26.555 19.284l24.72-12.995a7.635 7.635 0 0 1 7.112-.005l24.725 13c13.388 7.042 29.114-4.32 26.553-19.284l-4.722-27.563a7.64 7.64 0 0 1 2.194-6.758l20.003-19.493c10.856-10.586 4.852-29.041-10.15-31.212zm2.707 23.58-20 19.493a18.29 18.29 0 0 0-5.266 16.192l4.722 27.563c1.077 6.282-5.496 10.982-11.079 8.049l-24.728-13.006a18.31 18.31 0 0 0-17.03.005l-24.722 13c-5.607 2.951-12.154-1.802-11.082-8.049l4.72-27.563a18.282 18.282 0 0 0-5.261-16.192L13.081 248.08c-4.536-4.425-2.055-12.119 4.233-13.032l27.602-3.999a18.291 18.291 0 0 0 13.786-10.007l12.391-25.079c2.808-5.682 10.883-5.691 13.695 0l12.394 25.074a18.272 18.272 0 0 0 13.779 10.007l27.607 4.004c6.275.911 8.78 8.595 4.237 13.032zm175.354-23.58-27.615-4.009a7.605 7.605 0 0 1-5.745-4.176l-12.394-25.079c-6.72-13.598-26.102-13.574-32.811 0L227.2 216.32a7.633 7.633 0 0 1-5.75 4.176l-27.609 4.004c-15.006 2.172-21.002 20.63-10.145 31.212l19.998 19.493a7.629 7.629 0 0 1 2.194 6.758l-4.72 27.563c-2.557 14.924 13.116 26.352 26.553 19.284l24.72-12.995a7.635 7.635 0 0 1 7.112-.005l24.725 13c13.408 7.053 29.11-4.356 26.553-19.284l-4.72-27.563h-.003a7.645 7.645 0 0 1 2.194-6.758l20.003-19.493c10.855-10.584 4.861-29.04-10.146-31.212zm2.705 23.58-20.003 19.493a18.287 18.287 0 0 0-5.258 16.192l4.717 27.563c1.076 6.276-5.49 10.985-11.079 8.049l-24.728-13.006a18.31 18.31 0 0 0-17.03.005l-24.723 13c-5.608 2.948-12.151-1.796-11.079-8.049l4.717-27.563a18.286 18.286 0 0 0-5.261-16.192l-19.998-19.493c-4.522-4.411-2.067-12.117 4.233-13.032l27.604-3.999a18.293 18.293 0 0 0 13.784-10.007l12.394-25.079c2.81-5.686 10.88-5.693 13.693 0l12.394 25.074a18.272 18.272 0 0 0 13.779 10.007l27.609 4.004c6.272.912 8.777 8.596 4.235 13.033zm185.5 7.632c10.857-10.582 4.861-29.04-10.147-31.212l-27.612-4.009a7.61 7.61 0 0 1-5.748-4.176l-12.394-25.079c-6.72-13.598-26.102-13.574-32.811 0l-12.394 25.084a7.633 7.633 0 0 1-5.75 4.176l-27.607 4.004c-15.005 2.172-21.005 20.63-10.147 31.212l20 19.493a7.634 7.634 0 0 1 2.194 6.758l-4.722 27.563c-2.555 14.916 13.116 26.352 26.553 19.284l24.723-12.995a7.618 7.618 0 0 1 7.112-.005l24.723 13a18.309 18.309 0 0 0 8.536 2.124c11.034 0 19.98-9.955 18.019-21.409l-4.722-27.563h-.003a7.633 7.633 0 0 1 2.2-6.758zm-27.44 11.861a18.275 18.275 0 0 0-5.264 16.192l4.72 27.563c1.076 6.275-5.491 10.983-11.082 8.049l-24.725-13.006a18.31 18.31 0 0 0-17.03.005l-24.725 13c-5.611 2.952-12.15-1.801-11.079-8.049l4.722-27.563a18.294 18.294 0 0 0-5.266-16.192l-19.998-19.493c-4.526-4.415-2.064-12.117 4.235-13.032l27.602-3.999a18.293 18.293 0 0 0 13.784-10.007l12.394-25.079c2.81-5.686 10.88-5.693 13.693 0l12.394 25.074a18.272 18.272 0 0 0 13.781 10.007l27.607 4.004c6.263.909 8.786 8.589 4.233 13.032z"/>
</svg>
