<svg data-name="Layer 3" viewBox="0 0 64 64" xmlns="http://www.w3.org/2000/svg">
    <path d="M8 48h8v2H8zm0 4h8v2H8zm0 4h8v2H8zm40-8h8v2h-8zm0 4h8v2h-8zm0 4h8v2h-8zM28 5h8v2h-8zm0 4h8v2h-8zm0 4h8v2h-8z"/>
    <path d="M2 42h9v2H5a1 1 0 0 0-1 1v17a1 1 0 0 0 1 1h14a1 1 0 0 0 1-1V45a1 1 0 0 0-1-1h-6v-2h38v2h-6a1 1 0 0 0-1 1v17a1 1 0 0 0 1 1h14a1 1 0 0 0 1-1V45a1 1 0 0 0-1-1h-6v-2h5a1 1 0 0 0 .914-.594l4-9a1.007 1.007 0 0 0 0-.812l-4-9A1 1 0 0 0 58 22H33v-2h6a1 1 0 0 0 1-1V2a1 1 0 0 0-1-1H25a1 1 0 0 0-1 1v17a1 1 0 0 0 1 1h6v2H2a1 1 0 0 0-1 1v18a1 1 0 0 0 1 1zm16 19H6V46h12zm40 0H46V46h12zM26 3h12v15H26zm34.905 29-3.554 8H53v-5.184a3 3 0 1 0-2 0V40h-9.461l3.375-7.594a1.007 1.007 0 0 0 0-.812L41.539 24h15.812zM51 32a1 1 0 1 1 1 1 1 1 0 0 1-1-1zm-18 0a1 1 0 1 1-1-1 1 1 0 0 1 1 1zm-2-2.816a3 3 0 1 0 2 0V24h6.35l3.555 8-3.555 8H20.539l3.375-7.594a1.007 1.007 0 0 0 0-.812L20.539 24H31zM3 24h15.35l3.555 8-3.555 8H13v-5.184a3 3 0 1 0-2 0V40H3zm8 8a1 1 0 1 1 1 1 1 1 0 0 1-1-1z"/>
</svg>
