<svg data-name="Factory" viewBox="0 0 512 512" xmlns="http://www.w3.org/2000/svg">
    <path d="M493.93 418.192V211.41c8.379-1.346 14.723-8.634 14.723-17.278v-12.829c0-4.814-2.014-9.466-5.524-12.761s-8.282-4.998-13.085-4.704L312.55 175.112V92.305c5.749-2.582 9.77-8.35 9.77-15.05V54.039c0-9.098-7.402-16.5-16.5-16.5h-82.935c-9.098 0-16.5 7.402-16.5 16.5v23.217c0 6.702 4.023 12.472 9.775 15.052v88.927l-80.18 5.093V92.301c5.749-2.582 9.77-8.35 9.77-15.05v-23.21c0-9.098-7.402-16.5-16.5-16.5H91.12c-4.143 0-7.5 3.357-7.5 7.5s3.357 7.5 7.5 7.5h38.13c.827 0 1.5.673 1.5 1.5v23.21c0 .827-.673 1.5-1.5 1.5H46.32c-.841 0-1.5-.659-1.5-1.5v-23.21c0-.827.673-1.5 1.5-1.5h9.8c4.143 0 7.5-3.357 7.5-7.5s-3.357-7.5-7.5-7.5h-9.8c-9.098 0-16.5 7.402-16.5 16.5v23.21c0 6.699 4.021 12.468 9.77 15.05v269.24h-2.02c-10.752 0-19.5 8.748-19.5 19.5v37.151C7.843 419.842 0 428.706 0 439.392v13.569c0 11.855 9.645 21.5 21.5 21.5h410.96c4.143 0 7.5-3.357 7.5-7.5s-3.357-7.5-7.5-7.5H21.5a6.508 6.508 0 0 1-6.5-6.5v-13.569c0-3.584 2.916-6.5 6.5-6.5h469c3.584 0 6.5 2.916 6.5 6.5v13.569c0 3.584-2.916 6.5-6.5 6.5h-23.04c-4.143 0-7.5 3.357-7.5 7.5s3.357 7.5 7.5 7.5h23.04c11.855 0 21.5-9.645 21.5-21.5v-13.569c0-10.686-7.843-19.55-18.07-21.2zm-15-30.281H445v-36.31c0-13.51-10.99-24.5-24.5-24.5h-42.7c-13.51 0-24.5 10.99-24.5 24.5v36.31H125.02V234.925l353.91-22.481zm-353.91 15H353.3v14.98H125.02zm243.28-51.309c0-5.238 4.262-9.5 9.5-9.5h42.7c5.238 0 9.5 4.262 9.5 9.5v66.29h-61.7zm76.7 51.309h33.93v14.98H445zm45.994-224.102a2.478 2.478 0 0 1 1.869.671c.295.277.789.882.789 1.823v12.829a2.505 2.505 0 0 1-2.342 2.495L112.963 220.66a2.437 2.437 0 0 1-1.869-.671 2.483 2.483 0 0 1-.789-1.823v-12.829a2.505 2.505 0 0 1 2.341-2.495zM221.385 54.039c0-.827.673-1.5 1.5-1.5h82.935c.827 0 1.5.673 1.5 1.5v23.217c0 .827-.673 1.5-1.5 1.5h-82.935c-.827 0-1.5-.673-1.5-1.5zm9.775 39.717h66.39v82.309l-66.39 4.217zm-176.57-.005h66.391v93.53l-9.287.59c-9.189.585-16.389 8.257-16.389 17.466v12.829a17.57 17.57 0 0 0 5.524 12.761c2.553 2.397 5.776 3.941 9.19 4.496v126.118H54.59zm-17.02 282.79h72.449v41.351H33.07v-36.851c0-2.481 2.019-4.5 4.5-4.5z"/>
    <path d="M378.435 302.977h41.435c9.649 0 17.5-7.851 17.5-17.5v-22.652c0-9.649-7.851-17.5-17.5-17.5h-41.435c-9.649 0-17.5 7.851-17.5 17.5v22.652c0 9.649 7.85 17.5 17.5 17.5zm-2.5-40.153c0-1.379 1.121-2.5 2.5-2.5h41.435c1.379 0 2.5 1.121 2.5 2.5v22.652c0 1.379-1.121 2.5-2.5 2.5h-41.435a2.502 2.502 0 0 1-2.5-2.5zm-209.479 16.153h154.957c4.143 0 7.5-3.357 7.5-7.5s-3.357-7.5-7.5-7.5H166.456c-4.143 0-7.5 3.357-7.5 7.5s3.357 7.5 7.5 7.5zm0 27h154.957c4.143 0 7.5-3.357 7.5-7.5s-3.357-7.5-7.5-7.5H166.456c-4.143 0-7.5 3.357-7.5 7.5s3.357 7.5 7.5 7.5zm154.957 12H166.456c-4.143 0-7.5 3.357-7.5 7.5s3.357 7.5 7.5 7.5h154.957c4.143 0 7.5-3.357 7.5-7.5s-3.357-7.5-7.5-7.5z"/>
</svg>
