<svg image-rendering="optimizeQuality" shape-rendering="geometricPrecision" text-rendering="geometricPrecision" viewBox="0 0 6.827 6.827" xmlns="http://www.w3.org/2000/svg">
    <path d="M6.136 6.48H3.569a.07.07 0 1 1 0-.14h2.497V3.568l-2.519-.802a.07.07 0 0 1 .043-.134l2.567.817a.07.07 0 0 1 .05.067V6.41a.07.07 0 0 1-.071.07z"/>
    <path d="M4.162 5.7h1.381v-.395H4.162zm1.451.14H4.091a.07.07 0 0 1-.07-.07v-.535a.07.07 0 0 1 .07-.07h1.522a.07.07 0 0 1 .07.07v.535a.07.07 0 0 1-.07.07zM4.162 4.62h1.381v-.394H4.162zm1.451.141H4.091a.07.07 0 0 1-.07-.07v-.535a.07.07 0 0 1 .07-.07h1.522a.07.07 0 0 1 .07.07v.535a.07.07 0 0 1-.07.07zM.76 6.34h2.738V1.856A1.37 1.37 0 0 0 2.13.487 1.37 1.37 0 0 0 .76 1.856V6.34zm2.809.14H.69a.07.07 0 0 1-.07-.07V1.856c0-.832.676-1.51 1.509-1.51.832 0 1.509.678 1.509 1.51V6.41a.07.07 0 0 1-.07.07z"/>
    <path d="M1.498 6.48a.07.07 0 0 1-.07-.07V2.014a.07.07 0 0 1 .14 0V6.41a.07.07 0 0 1-.07.07zm1.262 0a.07.07 0 0 1-.07-.07V2.014a.07.07 0 1 1 .141 0V6.41a.07.07 0 0 1-.07.07z"/>
    <path d="M2.76 2.902H1.5a.07.07 0 0 1 0-.14h1.26a.07.07 0 0 1 0 .14zm0 .879H1.5a.07.07 0 0 1 0-.14h1.26a.07.07 0 0 1 0 .14zm0 .879H1.5a.07.07 0 0 1 0-.14h1.26a.07.07 0 0 1 0 .14zm0 .88H1.5a.07.07 0 1 1 0-.141h1.26a.07.07 0 0 1 0 .14zm.809-3.456H.69a.07.07 0 0 1 0-.14h2.878a.07.07 0 0 1 0 .14z"/>
</svg>
