<svg data-name="Nuclear Power" viewBox="0 0 512 512" xmlns="http://www.w3.org/2000/svg">
    <path d="M309.151 237.747h-35.668l3.993-63.624c.297-4.735-2.508-8.979-6.982-10.559-4.472-1.58-9.321-.041-12.064 3.83l.001-.001-65.679 92.662a10.462 10.462 0 0 0-.76 10.894 10.463 10.463 0 0 0 9.327 5.679h36.497l-13.151 59.64a10.47 10.47 0 0 0 5.662 11.704 10.471 10.471 0 0 0 12.703-2.774l74.232-90.282c2.606-3.17 3.136-7.444 1.383-11.154-1.752-3.71-5.39-6.015-9.494-6.015zm-38.482-61.68-.002.004zm-27.318 145.122 10.32-46.802c.688-3.123-.066-6.344-2.069-8.837s-4.986-3.923-8.185-3.923h-33.393l51.491-72.646-3.301 52.606a10.54 10.54 0 0 0 2.826 7.847 10.541 10.541 0 0 0 7.653 3.312h30.933z"/>
    <path d="M486.257 346.479c0-17.369-14.131-31.5-31.5-31.5-2.435 0-4.803.287-7.081.812-11.206-19.704-24.472-39.774-39.515-59.844 7.333-9.781 14.246-19.553 20.684-29.256a31.349 31.349 0 0 0 9.868 1.592c17.369 0 31.5-14.131 31.5-31.5 0-9.268-4.025-17.613-10.417-23.382 29.828-60.644 33.099-107.049 9.094-131.054-12.942-12.942-33.115-18.033-58.569-14.877-5.377-9.695-15.715-16.274-27.564-16.274-17.369 0-31.5 14.131-31.5 31.5 0 .823.042 1.637.104 2.445-7.553 3.325-15.276 7.076-23.126 11.205-6.785-12.184-14.187-22.582-22.155-31.072C290.341 8.503 273.235 0 255.237 0c-27.217 0-52.659 19.824-72.991 56.351-7.484-3.938-14.85-7.523-22.065-10.732a31.51 31.51 0 0 0 .598-6.098c0-17.369-14.131-31.5-31.5-31.5-13.1 0-24.355 8.041-29.097 19.444-25.483-3.155-45.655 1.936-58.598 14.881-21.749 21.75-20.958 62.81 2.108 115.978-5.666 5.698-9.174 13.545-9.174 22.197 0 17.369 14.131 31.5 31.5 31.5 1.997 0 3.948-.195 5.843-.552 9.092 14.729 19.296 29.642 30.472 44.551a629.394 629.394 0 0 0-18.303 25.681 31.388 31.388 0 0 0-8.86-1.277c-17.369 0-31.5 14.131-31.5 31.5 0 8.675 3.525 16.542 9.218 22.244-14.528 28.623-23.325 54.36-26.157 76.571-3.307 25.93 1.689 45.751 14.852 58.913 10.536 10.535 25.335 15.838 44.126 15.837 3.085 0 6.29-.16 9.59-.446 5.282 10.007 15.791 16.847 27.872 16.847 17.369 0 31.5-14.131 31.5-31.5 0-.538-.014-1.073-.041-1.605 8.984-3.792 18.213-8.184 27.622-13.128C202.468 491.948 227.933 512 255.237 512c27.217 0 52.658-19.825 72.988-56.353 7.885 4.148 15.644 7.914 23.23 11.252a31.716 31.716 0 0 0-.198 3.492c0 17.369 14.131 31.5 31.5 31.5 12.261 0 22.901-7.046 28.103-17.298 4.689.561 9.207.857 13.523.857 18.872-.001 34.052-5.342 44.507-15.797 19.356-19.355 21.03-53.216 4.957-98.141 7.536-5.761 12.41-14.837 12.41-25.033zm-15 0c0 9.098-7.402 16.5-16.5 16.5s-16.5-7.402-16.5-16.5 7.402-16.5 16.5-16.5 16.5 7.402 16.5 16.5zm-32.544-133.197c-9.098 0-16.5-7.402-16.5-16.5s7.402-16.5 16.5-16.5 16.5 7.402 16.5 16.5-7.401 16.5-16.5 16.5zM382.757 26.195c9.098 0 16.5 7.402 16.5 16.5s-7.402 16.5-16.5 16.5-16.5-7.402-16.5-16.5 7.402-16.5 16.5-16.5zm-26.653 33.259c5.583 8.848 15.44 14.742 26.653 14.742 17.369 0 31.5-14.131 31.5-31.5 0-.196-.011-.39-.015-.585 15.055-1.586 32.845-.353 44.041 10.844 9.472 9.472 13.091 24.592 10.756 44.939-2.211 19.271-9.958 42.807-22.464 68.382a31.46 31.46 0 0 0-7.862-.993c-17.369 0-31.5 14.131-31.5 31.5 0 8.521 3.407 16.258 8.922 21.934a603.579 603.579 0 0 1-17.467 24.866c-9.375-11.928-19.36-23.829-29.891-35.627-2.505-29.747-7.314-58.303-14.289-84.271-1.074-4.001-5.187-6.369-9.189-5.298a7.499 7.499 0 0 0-5.297 9.188c5.199 19.356 9.162 40.219 11.819 61.973a834.014 834.014 0 0 0-14.873-15.262c-22.446-22.446-45.867-43.213-69.357-61.654 18.367-13.589 36.622-25.599 54.316-35.714 2.652 5.666 5.196 11.685 7.62 18.043a7.5 7.5 0 0 0 9.68 4.336 7.5 7.5 0 0 0 4.337-9.68c-2.678-7.024-5.504-13.668-8.467-19.934 7.135-3.751 14.153-7.167 21.027-10.229zM321.89 435.072c-17.686-10.111-35.929-22.115-54.285-35.695 23.44-18.409 46.838-39.157 69.345-61.663a813.806 813.806 0 0 0 14.915-15.324c-4.843 39.867-14.059 76.356-27.096 106.335a241.13 241.13 0 0 1-2.879 6.347zm4.453-107.966c-23.099 23.099-47.114 44.288-71.09 62.907-24.032-18.653-48.077-39.855-71.124-62.907a796.879 796.879 0 0 1-27.894-29.343A559.533 559.533 0 0 1 154.666 256c0-14.121.517-28.053 1.525-41.685a792.49 792.49 0 0 1 27.939-29.423c23.037-23.041 47.075-44.238 71.101-62.888 24.032 18.653 48.076 39.852 71.112 62.889a806.024 806.024 0 0 1 27.901 29.326A560.618 560.618 0 0 1 355.796 256c0 14.128-.517 28.066-1.526 41.704a790.978 790.978 0 0 1-27.927 29.402zM140.14 279.368a712.883 712.883 0 0 1-18.938-23.346 719.176 719.176 0 0 1 18.933-23.354 586.684 586.684 0 0 0-.469 23.332c.001 7.812.16 15.612.474 23.368zm48.437-202.437c17.686 10.114 35.933 22.12 54.293 35.702-23.485 18.438-46.9 39.203-69.347 61.654a809.59 809.59 0 0 0-14.926 15.341c4.843-39.873 14.062-76.367 27.102-106.35a239.96 239.96 0 0 1 2.878-6.347zM370.31 232.563a705.413 705.413 0 0 1 18.993 23.389 717.727 717.727 0 0 1-18.975 23.382 586.81 586.81 0 0 0 .469-23.333 582.137 582.137 0 0 0-.487-23.438zM255.237 15c21.465 0 42.472 17.337 59.847 48.558-19.504 11.118-39.644 24.446-59.854 39.594-20.197-15.138-40.325-28.461-59.816-39.575C212.832 32.446 234.042 15 255.237 15zm-125.958 8.021c9.098 0 16.5 7.402 16.5 16.5s-7.402 16.5-16.5 16.5-16.5-7.402-16.5-16.5 7.402-16.5 16.5-16.5zm-79.761 157.5c0-9.098 7.402-16.5 16.5-16.5s16.5 7.402 16.5 16.5-7.402 16.5-16.5 16.5-16.5-7.402-16.5-16.5zm36.085 24.645c7.253-5.776 11.915-14.673 11.915-24.644 0-17.369-14.131-31.5-31.5-31.5-3.263 0-6.412.499-9.374 1.425-19.388-45.552-21.083-80.864-4.454-97.492 11.569-11.569 30.202-12.52 45.718-10.66 1.409 16.075 14.937 28.728 31.371 28.728 9.923 0 18.783-4.616 24.561-11.809 7.045 3.124 14.245 6.627 21.565 10.479a258.183 258.183 0 0 0-3.461 7.603c-15.79 36.307-26.192 81.598-30.297 130.763-10.462 11.746-20.44 23.653-29.824 35.593-9.529-12.888-18.3-25.758-26.22-38.486zm-10.432 90.259c9.098 0 16.5 7.402 16.5 16.5s-7.402 16.5-16.5 16.5-16.5-7.402-16.5-16.5 7.402-16.5 16.5-16.5zm48 191.467c-9.098 0-16.5-7.402-16.5-16.5s7.402-16.5 16.5-16.5 16.5 7.402 16.5 16.5-7.402 16.5-16.5 16.5zm27.087-32.555c-5.497-9.239-15.578-15.445-27.087-15.445-17.335 0-31.441 14.075-31.497 31.397-17.607 1.136-30.871-2.63-39.484-11.243-19.015-19.013-13.879-62.502 13.563-117.061a31.395 31.395 0 0 0 9.418 1.439c17.369 0 31.5-14.131 31.5-31.5 0-8.891-3.708-16.927-9.653-22.66a609.505 609.505 0 0 1 14.803-20.884c9.382 11.943 19.365 23.848 29.86 35.622 2.106 24.992 5.836 49.196 11.094 71.573a7.504 7.504 0 0 0 7.295 5.786 7.5 7.5 0 0 0 7.308-9.218c-3.7-15.747-6.619-32.442-8.725-49.696a822.507 822.507 0 0 0 14.87 15.264c22.457 22.46 45.879 43.231 69.369 61.671-18.368 13.592-36.613 25.595-54.306 35.702-4.278-9.106-8.262-19.106-11.888-29.929a7.5 7.5 0 1 0-14.223 4.765c3.93 11.728 8.26 22.537 12.927 32.4-8.56 4.501-16.956 8.512-25.144 12.017zM255.237 497c-21.379 0-42.476-17.553-59.81-48.565 19.498-11.107 39.619-24.426 59.822-39.572 20.193 15.135 40.316 28.451 59.806 39.563C297.639 479.554 276.431 497 255.237 497zm127.52-10.108c-9.098 0-16.5-7.402-16.5-16.5s7.402-16.5 16.5-16.5 16.5 7.402 16.5 16.5-7.402 16.5-16.5 16.5zm75.526-27.845c-11.204 11.204-29.02 12.426-44.039 10.845-.269-17.138-14.286-31-31.487-31-10.854 0-20.444 5.519-26.111 13.897-7.052-3.126-14.256-6.628-21.582-10.482a258.048 258.048 0 0 0 3.46-7.601c15.787-36.305 26.187-81.595 30.291-130.759a753.053 753.053 0 0 0 29.85-35.637c13.47 18.219 25.414 36.403 35.609 54.266-6.738 5.781-11.018 14.349-11.018 23.903 0 17.369 14.131 31.5 31.5 31.5 1.809 0 3.581-.162 5.307-.456 13.434 38.078 12.858 66.886-1.78 81.524z"/>
</svg>
