<svg viewBox="0 0 58 59" xmlns="http://www.w3.org/2000/svg">
    <g fill="none">
        <path fill="#e64c3c" d="M42.5 11H29V2h13.5a.5.5 0 0 1 .3.9l-4.268 3.2a.5.5 0 0 0 0 .8l4.268 3.2a.5.5 0 0 1-.3.9z"/>
        <path fill="#cbb292" d="M29 16a1 1 0 0 1-1-1V1a1 1 0 0 1 2 0v14a1 1 0 0 1-1 1z"/>
        <path fill="#95a5a5" d="m44 43-15 2-15-2-5.3-8 5.82-17.28A4 4 0 0 1 18.31 15h21.38a4 4 0 0 1 3.79 2.72L49.3 35z"/>
        <path fill="#464f5d" d="M41.328 28H16.672a1 1 0 0 1-.948-1.319l1.347-4a1 1 0 0 1 .948-.681h21.962a1 1 0 0 1 .948.681l1.347 4A1 1 0 0 1 41.328 28z"/>
        <path fill="#cb8252" d="M58 41v-4a2.006 2.006 0 0 0-2-2H46a2.006 2.006 0 0 0-2 2v6H31a2.006 2.006 0 0 0-2 2 2.006 2.006 0 0 0-2-2H14v-6a2.006 2.006 0 0 0-2-2H2a2.006 2.006 0 0 0-2 2v4a2.006 2.006 0 0 0 2 2 2.006 2.006 0 0 0-2 2v4a2.006 2.006 0 0 0 2 2 2.006 2.006 0 0 0-2 2v4a2.006 2.006 0 0 0 2 2h10a2.006 2.006 0 0 0 2-2 2.006 2.006 0 0 0 2 2h11a2.006 2.006 0 0 0 2-2 2.006 2.006 0 0 0 2 2h11a2.006 2.006 0 0 0 2-2 2.006 2.006 0 0 0 2 2h10a2.006 2.006 0 0 0 2-2v-4a2.006 2.006 0 0 0-2-2 2.006 2.006 0 0 0 2-2v-4a2.006 2.006 0 0 0-2-2 2.006 2.006 0 0 0 2-2z"/>
        <path fill="#a56a43" d="M29 51v6a2.006 2.006 0 0 1-2 2H16a2.006 2.006 0 0 1-2-2v-6zm-15-8v8H2a2.006 2.006 0 0 1-2-2v-4a2.006 2.006 0 0 1 2-2zm44 10v4a2.006 2.006 0 0 1-2 2H46a2.006 2.006 0 0 1-2-2v-6h12a2.006 2.006 0 0 1 2 2zm0-16v4a2.006 2.006 0 0 1-2 2H44v-6a2.006 2.006 0 0 1 2-2h10a2.006 2.006 0 0 1 2 2zm-14 6v8H29v-6a2.006 2.006 0 0 1 2-2z"/>
    </g>
</svg>
