<svg image-rendering="optimizeQuality" shape-rendering="geometricPrecision" text-rendering="geometricPrecision" viewBox="0 0 6.827 6.827" xmlns="http://www.w3.org/2000/svg">
    <path d="M2.927 5.434h3.01l.383-1.587h-.73l-.294.455a.07.07 0 0 1-.06.033h-2.53l.22 1.1zm3.065.14H2.869a.07.07 0 0 1-.069-.056l-.248-1.24a.07.07 0 0 1 .068-.084h2.578l.294-.456a.07.07 0 0 1 .059-.032h.859a.07.07 0 0 1 .068.087L6.06 5.52a.07.07 0 0 1-.068.054z"/>
    <path d="M3.386 4.759a.132.132 0 1 0 0 .263.132.132 0 0 0 0-.263zm0 .403a.272.272 0 1 1 0-.544.272.272 0 0 1 0 .544zm.724-.403a.132.132 0 1 0 0 .263.132.132 0 0 0 0-.263zm0 .403a.272.272 0 1 1 0-.544.272.272 0 0 1 0 .544zm.722-.403a.132.132 0 1 0 0 .263.132.132 0 0 0 0-.263zm0 .403a.272.272 0 1 1 0-.544.272.272 0 0 1 0 .544zm.723-.403a.132.132 0 1 0 0 .263.132.132 0 0 0 0-.263zm0 .403a.272.272 0 1 1 0-.544.272.272 0 0 1 0 .544zm.7-1.315a.07.07 0 0 1-.07-.07v-.4h-.564v.4a.07.07 0 1 1-.14 0v-.47a.07.07 0 0 1 .07-.07h.704a.07.07 0 0 1 .07.07v.47a.07.07 0 0 1-.07.07z"/>
    <path d="M6.098 3.378a.07.07 0 0 1-.07-.07v-.344h-.25v.343a.07.07 0 1 1-.14 0v-.413a.07.07 0 0 1 .07-.07h.39a.07.07 0 0 1 .07.07v.413a.07.07 0 0 1-.07.07zM5 4.335a.07.07 0 0 1-.07-.07v-.733H2.927v.732a.07.07 0 0 1-.14 0v-.802a.07.07 0 0 1 .07-.07H5a.07.07 0 0 1 .07.07v.802a.07.07 0 0 1-.07.07z"/>
    <path d="M4.82 3.532a.07.07 0 0 1-.07-.07V2.73H3.107v.732a.07.07 0 0 1-.14 0V2.66a.07.07 0 0 1 .07-.07H4.82a.07.07 0 0 1 .07.07v.802a.07.07 0 0 1-.07.07zm.781 2.446a.552.552 0 0 1-.224-.065.447.447 0 0 0-.166-.052.448.448 0 0 0-.166.052c-.071.032-.144.065-.224.065a.552.552 0 0 1-.224-.065.448.448 0 0 0-.167-.052.445.445 0 0 0-.166.052.547.547 0 0 1-.224.065c-.08 0-.153-.033-.224-.065a.447.447 0 0 0-.166-.052.449.449 0 0 0-.167.052.547.547 0 0 1-.224.065.552.552 0 0 1-.224-.065.447.447 0 0 0-.166-.052.07.07 0 0 1 0-.14.55.55 0 0 1 .224.064c.06.027.116.053.166.053s.107-.026.167-.053a.552.552 0 0 1 .224-.065c.08 0 .153.033.224.065.06.027.116.053.166.053s.106-.026.166-.053a.552.552 0 0 1 .224-.065c.08 0 .154.033.224.065.06.027.117.053.167.053s.106-.026.166-.053a.547.547 0 0 1 .224-.065c.08 0 .153.033.224.065.06.027.116.053.166.053s.107-.026.167-.053a.552.552 0 0 1 .224-.065.07.07 0 1 1 0 .14.447.447 0 0 0-.167.053.543.543 0 0 1-.224.065zm0 .335a.552.552 0 0 1-.224-.065c-.06-.026-.116-.052-.166-.052a.448.448 0 0 0-.166.052c-.071.032-.144.065-.224.065a.553.553 0 0 1-.224-.065.448.448 0 0 0-.167-.052c-.05 0-.106.026-.166.052a.547.547 0 0 1-.224.065c-.08 0-.153-.033-.224-.065a.447.447 0 0 0-.166-.052c-.05 0-.107.026-.167.052a.547.547 0 0 1-.224.065.552.552 0 0 1-.224-.065c-.06-.026-.116-.052-.166-.052a.07.07 0 0 1 0-.14c.08 0 .153.033.224.064.06.027.116.053.166.053s.107-.026.167-.053a.552.552 0 0 1 .224-.064c.08 0 .153.033.224.064.06.027.116.053.166.053s.106-.026.166-.053a.552.552 0 0 1 .224-.064c.08 0 .154.033.224.064.06.027.117.053.167.053s.106-.026.166-.053a.551.551 0 0 1 .224-.064c.08 0 .153.033.224.064.06.027.116.053.166.053s.107-.026.167-.053a.552.552 0 0 1 .224-.064.07.07 0 1 1 0 .14.447.447 0 0 0-.167.052.543.543 0 0 1-.224.065zm-4.017 0H.417a.07.07 0 0 1-.07-.07V1.295a.07.07 0 1 1 .14 0v4.878h1.026V1.295a.07.07 0 1 1 .14 0v4.948a.07.07 0 0 1-.07.07z"/>
    <path d="M1.585 3.014a.07.07 0 0 1-.058-.03L.36 1.336a.07.07 0 1 1 .114-.08l1.168 1.649a.07.07 0 0 1-.057.11z"/>
    <path d="M.417 3.014a.07.07 0 0 1-.057-.11l1.167-1.65a.07.07 0 0 1 .115.081L.474 2.985a.07.07 0 0 1-.057.03zm0 1.65a.07.07 0 0 1-.057-.11l1.167-1.65a.07.07 0 0 1 .115.08L.474 4.635a.07.07 0 0 1-.057.03z"/>
    <path d="M1.585 4.664a.07.07 0 0 1-.058-.03L.36 2.984a.07.07 0 1 1 .114-.08l1.168 1.649a.07.07 0 0 1-.057.11zm0 1.649a.07.07 0 0 1-.058-.03L.36 4.635a.07.07 0 1 1 .114-.081l1.168 1.65a.07.07 0 0 1-.057.11z"/>
    <path d="M.417 6.313a.07.07 0 0 1-.057-.11l1.167-1.65a.07.07 0 0 1 .115.081L.474 6.284a.07.07 0 0 1-.057.03zm.07-5.088h4.815V.654H.487zm4.885.14H.417a.07.07 0 0 1-.07-.07V.584a.07.07 0 0 1 .07-.07h4.955a.07.07 0 0 1 .07.07v.71a.07.07 0 0 1-.07.071zM4.506 2.73a.07.07 0 0 1-.058-.03l-.52-.753-.52.753a.07.07 0 1 1-.115-.08l.578-.837a.07.07 0 0 1 .115 0l.578.837a.07.07 0 0 1-.058.11z"/>
    <path d="M3.928 1.893a.07.07 0 0 1-.07-.07v-.528a.07.07 0 1 1 .14 0v.528a.07.07 0 0 1-.07.07z"/>
</svg>
