<svg viewBox="0 0 512 512" xmlns="http://www.w3.org/2000/svg">
    <path d="m504.824 388.425-108.53-108.529c-9.292-9.291-24.231-9.517-33.834-.737l-15.741-15.741 76.053-76.058c4.817-4.817 7.47-11.221 7.47-18.033 0-5.071-1.472-9.914-4.209-14.046l14.671-14.671c9.942-9.943 9.942-26.123 0-36.066l-33.261-33.26c-4.816-4.816-11.221-7.469-18.033-7.469s-13.217 2.653-18.033 7.469l-14.67 14.67c-4.132-2.738-8.976-4.21-14.046-4.21-6.812 0-13.217 2.653-18.033 7.469l-10.16 10.16a7.5 7.5 0 0 0 10.607 10.606l10.16-10.16c1.982-1.983 4.62-3.076 7.426-3.076s5.443 1.092 7.427 3.076l62.08 62.081c1.983 1.983 3.075 4.621 3.075 7.426s-1.092 5.443-3.076 7.426L289.621 299.305l-76.939-76.939 87.641-87.635a7.5 7.5 0 1 0-10.605-10.606l-41.153 41.15-15.722-15.722c4.149-4.527 6.424-10.355 6.424-16.534a24.34 24.34 0 0 0-7.176-17.324L123.563 7.165c-9.554-9.554-25.098-9.552-34.649 0L28.393 67.686c-4.628 4.628-7.177 10.78-7.177 17.325s2.549 12.697 7.176 17.324L136.92 210.864h.001c4.776 4.776 11.05 7.164 17.324 7.164 5.93 0 11.846-2.162 16.511-6.43l15.74 15.739-49.903 49.899c-9.926 9.942-9.926 26.118.004 36.062l2.768 2.768-21.705 21.711-21.206-21.206c-22.403-22.403-58.863-22.402-81.278.002L5.135 326.626A17.361 17.361 0 0 0 0 338.99a17.39 17.39 0 0 0 5.128 12.389l111.939 111.939a7.5 7.5 0 0 0 10.607-10.606L15.736 340.773a2.494 2.494 0 0 1 .001-3.537l10.047-10.056c16.565-16.556 43.51-16.556 60.063-.001l98.96 98.959c16.556 16.556 16.555 43.5.003 60.061l-10.07 10.06a2.475 2.475 0 0 1-1.754.729h-.001a2.493 2.493 0 0 1-1.771-.736l-18.79-18.79a7.5 7.5 0 0 0-10.607 10.606l18.79 18.79a17.39 17.39 0 0 0 12.377 5.129h.013a17.358 17.358 0 0 0 12.354-5.126l10.064-10.054c22.401-22.413 22.4-58.873-.001-81.275l-21.198-21.198 21.704-21.711 2.77 2.77c4.971 4.963 11.498 7.445 18.028 7.445s13.062-2.483 18.035-7.449l49.894-49.897 15.74 15.739c-8.783 9.601-8.557 24.544.734 33.835L409.65 483.595c4.628 4.627 10.78 7.176 17.324 7.176s12.696-2.549 17.324-7.176l60.522-60.522c9.555-9.552 9.555-25.095.004-34.648zM381.985 81.891c1.982-1.983 4.62-3.076 7.426-3.076s5.443 1.092 7.426 3.076l33.261 33.26c4.095 4.095 4.095 10.758 0 14.854L415.79 144.31l-48.113-48.113zM371.3 424.029l73.956-73.957 22.274 22.274-73.957 73.957zm-32.88-32.88 73.957-73.957 22.273 22.273-73.956 73.957zm-59.405-81.237-28.99 28.992-76.942-76.942 28.992-28.99zM98.57 151.299l73.957-73.957L194.8 99.616l-73.957 73.957zm-32.88-32.88 73.957-73.957 22.273 22.273-73.957 73.957zM36.216 85.011c0-2.538.988-4.923 2.783-6.718L99.52 17.771c3.702-3.704 9.73-3.705 13.435 0l16.084 16.084-73.957 73.957-16.084-16.084a9.438 9.438 0 0 1-2.782-6.717zm111.311 115.246L131.45 184.18l73.957-73.957 16.078 16.078a9.438 9.438 0 0 1 2.782 6.717 9.437 9.437 0 0 1-2.783 6.718l-60.521 60.522c-3.704 3.703-9.731 3.703-13.436-.001zm33.875.774 40.853-40.854 15.703 15.703-40.854 40.852zm-17.791 182.698-35.344-35.344 21.705-21.711 35.343 35.343zm60.541-18.95c-4.096 4.09-10.763 4.091-14.856.004l-62.086-62.086c-4.092-4.097-4.092-10.764-.005-14.857l15.271-15.27 76.943 76.942zm111.961-90.753 15.702 15.702-40.857 40.858-15.701-15.7zm-24.382 76.999 60.521-60.521a9.473 9.473 0 0 1 6.719-2.778c2.433 0 4.865.926 6.717 2.778l16.082 16.082-73.957 73.957-16.082-16.082c-3.704-3.705-3.704-9.732 0-13.436zm182.485 61.442-60.522 60.522c-1.794 1.794-4.18 2.783-6.717 2.783s-4.923-.988-6.717-2.783l-16.08-16.08 73.957-73.957 16.079 16.079c3.704 3.705 3.704 9.732 0 13.436z"/>
    <path d="M343.457 200.276c8.134 0 16.267-3.096 22.459-9.288 12.383-12.383 12.383-32.533-.001-44.917-12.383-12.383-32.532-12.384-44.917 0-12.382 12.384-12.382 32.533 0 44.917 6.193 6.192 14.326 9.288 22.459 9.288zm-11.852-43.598a16.71 16.71 0 0 1 11.853-4.901 16.71 16.71 0 0 1 11.852 4.901c6.535 6.535 6.535 17.168 0 23.704-6.534 6.536-17.169 6.535-23.703 0-6.536-6.535-6.536-17.169-.002-23.704zm-70.961 84.059a7.5 7.5 0 0 0 5.304 12.803 7.478 7.478 0 0 0 5.304-2.197l40.256-40.256a7.5 7.5 0 0 0-10.607-10.606z"/>
</svg>
