<svg viewBox="0 0 510.938 510.938" xmlns="http://www.w3.org/2000/svg">
    <path d="M510.268 327.979 467.928 97.53c-3.141-17.097-20.599-31.006-38.917-31.006h-15.28c-4.143 0-7.5 3.357-7.5 7.5s3.357 7.5 7.5 7.5h15.28c11.234 0 22.3 8.57 24.163 18.716l7.141 38.864h-91.099l-5.289-57.58h14.804c4.143 0 7.5-3.357 7.5-7.5s-3.357-7.5-7.5-7.5H275.219l2.483-39.558c.297-4.735-2.508-8.979-6.98-10.559-4.475-1.58-9.321-.043-12.065 3.828l-32.808 46.288H81.841c-19.247 0-35.614 13.039-38.917 31.005L.584 327.978c-1.926 10.482.956 21.278 7.905 29.621 7.541 9.052 18.844 14.244 31.011 14.244h64.177l13.468 22.306c4.056 6.695 11.437 10.854 19.265 10.854h83.43v27.399h-35.86c-16.266 0-29.5 13.233-29.5 29.5v17.74c0 8.547 6.953 15.5 15.5 15.5h24.47c4.142 0 7.5-3.357 7.5-7.5s-3.358-7.5-7.5-7.5h-24.47a.5.5 0 0 1-.5-.5v-17.74c0-7.995 6.505-14.5 14.5-14.5h142.89c7.995 0 14.5 6.505 14.5 14.5v17.74c0 .275-.225.5-.5.5H229.45c-4.142 0-7.5 3.357-7.5 7.5s3.358 7.5 7.5 7.5h111.42c8.547 0 15.5-6.953 15.5-15.5v-17.74c0-16.267-13.233-29.5-29.5-29.5h-35.859v-27.399h83.5c7.827 0 15.209-4.159 19.271-10.863l13.463-22.297h64.106c12.651 0 24.1-5.032 31.408-13.807 6.885-8.265 9.552-18.94 7.509-30.057zM34.446 226.684h99.144l-5.289 57.58H23.867zm13.335-72.58h92.477l-5.289 57.58H37.202zm182.773 46.711a10.47 10.47 0 0 0 12.701-2.775l4.666-5.675v19.318h-97.889l5.289-57.58h77.289l-7.719 35.008a10.467 10.467 0 0 0 5.663 11.704zm48.827-46.711h76.15l5.289 57.58h-97.899v-37.561zm-130.727 72.58h99.267v57.58H143.365zm99.267 72.58v57.58H136.698l5.289-57.58zm15 0h105.944l5.289 57.58H262.921zm0-15v-57.58h99.277l5.289 57.58zm114.34-57.58h99.145l10.579 57.58H382.551zm85.81-72.58 10.579 57.58h-97.767l-5.289-57.58zm-114.208-72.58 5.289 57.58h-62.439l25.773-31.346c2.606-3.169 3.137-7.443 1.384-11.153-1.753-3.711-5.391-6.016-9.494-6.016h-35.668l.569-9.065zm-87.122-39.698-3.303 52.606c-.181 2.882.85 5.741 2.826 7.846s4.766 3.312 7.653 3.312h30.934l-56.275 68.442 10.32-46.802a10.452 10.452 0 0 0-2.07-8.838 10.452 10.452 0 0 0-8.184-3.922H210.25zm-68.762 71.072c-2.281 3.217-2.573 7.391-.762 10.894s5.385 5.679 9.328 5.679h36.498l-2.124 9.634h-79.218l5.289-57.58h53.228zM57.677 100.241c1.994-10.846 12.156-18.717 24.164-18.717h65.084l-5.289 57.58H50.537zM20.015 348c-4.151-4.983-5.812-11.131-4.678-17.31l5.774-31.426h105.812l-5.289 57.58H39.501c-7.701 0-14.803-3.223-19.486-8.844zm255.996 84.404h-41.17v-27.399h41.17zm104.935-46.025a7.566 7.566 0 0 1-6.435 3.626h-238.1a7.563 7.563 0 0 1-6.43-3.617l-8.781-14.543h268.521zm110.287-37.941c-4.515 5.421-11.576 8.406-19.882 8.406h-82.133l-5.289-57.58h105.813l5.774 31.426c1.223 6.66-.298 12.964-4.283 17.748z"/>
</svg>
