<svg image-rendering="optimizeQuality" shape-rendering="geometricPrecision" text-rendering="geometricPrecision" viewBox="0 0 6.827 6.827" xmlns="http://www.w3.org/2000/svg">
    <path d="M5.51 6.363a.07.07 0 0 1-.07-.07V2.435H1.387v3.858a.07.07 0 1 1-.14 0V2.365a.07.07 0 0 1 .07-.07H5.51a.07.07 0 0 1 .07.07v3.928a.07.07 0 0 1-.07.07zm.507 0a.07.07 0 0 1-.07-.07V2.085L3.413.615.88 2.085v4.208a.07.07 0 1 1-.14 0V2.045a.07.07 0 0 1 .035-.06L3.378.472a.07.07 0 0 1 .07 0l2.604 1.511a.07.07 0 0 1 .035.06v4.25a.07.07 0 0 1-.07.07z"/>
    <path d="M5.51 3.047H1.317a.07.07 0 0 1 0-.14H5.51a.07.07 0 0 1 0 .14zm0 .613H1.317a.07.07 0 0 1 0-.14H5.51a.07.07 0 1 1 0 .14zM1.872 6.363a.07.07 0 0 1-.07-.07v-.506a.07.07 0 0 1 .14 0v.506a.07.07 0 0 1-.07.07zm1.258 0a.07.07 0 0 1-.07-.07v-.506a.07.07 0 0 1 .14 0v.506a.07.07 0 0 1-.07.07z"/>
    <path d="M3.13 5.857H1.872a.07.07 0 0 1-.07-.07v-.506a.07.07 0 0 1 .14 0v.436H3.06v-.436a.07.07 0 0 1 .14 0v.506a.07.07 0 0 1-.07.07z"/>
    <path d="M3.13 5.351H1.872a.07.07 0 0 1-.07-.07v-.506a.07.07 0 0 1 .14 0v.436H3.06v-.436a.07.07 0 0 1 .14 0v.506a.07.07 0 0 1-.07.07z"/>
    <path d="M1.942 4.705H3.06v-.366H1.942zm1.188.14H1.872a.07.07 0 0 1-.07-.07v-.506a.07.07 0 0 1 .07-.07H3.13a.07.07 0 0 1 .07.07v.506a.07.07 0 0 1-.07.07zm.593 1.518a.07.07 0 0 1-.07-.07V5.281a.07.07 0 0 1 .14 0v1.012a.07.07 0 0 1-.07.07zm1.232 0a.07.07 0 0 1-.07-.07V5.281a.07.07 0 0 1 .14 0v1.012a.07.07 0 0 1-.07.07z"/>
    <path d="M3.793 5.21h1.092v-.87H3.793zm1.162.141H3.723a.07.07 0 0 1-.07-.07V4.27a.07.07 0 0 1 .07-.07h1.232a.07.07 0 0 1 .07.07v1.012a.07.07 0 0 1-.07.07z"/>
    <path d="M4.512 5.038h-.346a.07.07 0 0 1-.07-.07V4.27a.07.07 0 1 1 .14 0v.629h.206V4.27a.07.07 0 0 1 .14 0v.7a.07.07 0 0 1-.07.07zm0 1.012h-.346a.07.07 0 0 1-.07-.07v-.699a.07.07 0 0 1 .14 0v.63h.206v-.63a.07.07 0 0 1 .14 0v.7a.07.07 0 0 1-.07.07zM3.413 1.141c-.21 0-.38.19-.38.425 0 .233.17.424.38.424s.38-.19.38-.424c0-.234-.17-.425-.38-.425zm0 .99c-.287 0-.52-.254-.52-.565 0-.312.233-.565.52-.565.288 0 .521.253.521.565s-.233.564-.52.564z"/>
    <path d="M3.413 2.13a.07.07 0 0 1-.07-.07v-.99a.07.07 0 0 1 .14 0v.989a.07.07 0 0 1-.07.07z"/>
    <path d="M3.864 1.636h-.901a.07.07 0 0 1 0-.14h.901a.07.07 0 0 1 0 .14zM6.41 6.363H.417a.07.07 0 1 1 0-.14H6.41a.07.07 0 0 1 0 .14z"/>
</svg>
