<svg viewBox="0 0 512.063 512.063" xmlns="http://www.w3.org/2000/svg">
    <path fill="#2d2d2d" d="m256.031 0-10 256.031 10 256.032 181-98.133V0z"/>
    <path fill="#4b5055" d="M75.031 0v413.93l181 98.133V0z"/>
    <path fill="#ffb655" d="m407.031 280.195-151 81.868-10 15 10 25.874 151-81.867z"/>
    <path fill="#ffb655" d="M407.031 396.07v-40.875l-151 81.868-10 15 10 25.874z"/>
    <path fill="#ffda44" d="M105.031 280.195v40.875l151 81.867v-40.874z"/>
    <path fill="#ffb655" d="m299.121 181.692 43.09-42.002-59.548-8.653-26.632-53.961-10 81.962 10 53.96L309.294 241z"/>
    <g fill="#ffda44">
        <path d="m105.031 396.07 151 81.867v-40.874l-151-81.868z"/>
        <path d="m229.4 131.037-59.548 8.653 43.09 42.002L202.769 241l53.262-28.002V77.076z"/>
    </g>
</svg>
