<svg data-name="Layer 3" viewBox="0 0 64 64" xmlns="http://www.w3.org/2000/svg">
    <path d="M16 37a11 11 0 1 0 11 11 11.013 11.013 0 0 0-11-11zm0 20a9 9 0 1 1 9-9 9.01 9.01 0 0 1-9 9z"/>
    <path d="M48 37a11 11 0 1 0 11 11 11.013 11.013 0 0 0-11-11zm0 20a9 9 0 1 1 9-9 9.01 9.01 0 0 1-9 9z"/>
    <path d="M32 5a12.989 12.989 0 0 0-7 23.937V29h.1a12.889 12.889 0 0 0 13.8 0h.1v-.063A12.989 12.989 0 0 0 32 5zm-5 22.786V26a5 5 0 0 1 10 0v1.786a10.9 10.9 0 0 1-10 0zM28 15a4 4 0 1 1 4 4 4 4 0 0 1-4-4zm11 11.479V26a7 7 0 0 0-3.562-6.09 6 6 0 1 0-6.876 0A7 7 0 0 0 25 26v.479a11 11 0 1 1 14 0z"/>
    <path d="m13.951 50.537-2.244-2.244-1.414 1.414 3 3A1 1 0 0 0 14 53h.033a1 1 0 0 0 .72-.341l7-8-1.506-1.316z"/>
    <path d="M52.293 42.293 48 46.586l-4.293-4.293-1.414 1.414L46.586 48l-4.293 4.293 1.414 1.414L48 49.414l4.293 4.293 1.414-1.414L49.414 48l4.293-4.293z"/>
    <path d="M49 18a17 17 0 1 0-17 17 17.019 17.019 0 0 0 17-17zM32 33a15 15 0 1 1 15-15 15.017 15.017 0 0 1-15 15z"/>
    <path d="M16 33a15 15 0 1 0 15 15 15.017 15.017 0 0 0-15-15zm0 28a13 13 0 1 1 13-13 13.015 13.015 0 0 1-13 13z"/>
    <path d="M48 33a15 15 0 1 0 15 15 15.017 15.017 0 0 0-15-15zm0 28a13 13 0 1 1 13-13 13.015 13.015 0 0 1-13 13z"/>
</svg>
