<svg data-name="Layer 3" viewBox="0 0 64 64" xmlns="http://www.w3.org/2000/svg">
    <path d="M32.726 1.312a1.03 1.03 0 0 0-1.452 0l-18 19A1 1 0 0 0 14 22h5v22a1 1 0 0 0 1 1h24a1 1 0 0 0 1-1V22h5a1 1 0 0 0 .726-1.688zM44 20a1 1 0 0 0-1 1v22H21V21a1 1 0 0 0-1-1h-3.675L32 3.454 47.675 20zm1 28a1 1 0 0 0-1-1H20a1 1 0 0 0-1 1v6a1 1 0 0 0 1 1h24a1 1 0 0 0 1-1zm-2 5H21v-4h22zm1 4H20a1 1 0 0 0-1 1v4a1 1 0 0 0 1 1h24a1 1 0 0 0 1-1v-4a1 1 0 0 0-1-1zm-1 4H21v-2h22zM12 33h2a1 1 0 0 0 .759-1.651l-6-7a1.033 1.033 0 0 0-1.518 0l-6 7A1 1 0 0 0 2 33h2v9a1 1 0 0 0 1 1h6a1 1 0 0 0 1-1zm-1-2a1 1 0 0 0-1 1v9H6v-9a1 1 0 0 0-1-1h-.826L8 26.537 11.826 31zm49 2h2a1 1 0 0 0 .759-1.651l-6-7a1.033 1.033 0 0 0-1.518 0l-6 7A1 1 0 0 0 50 33h2v9a1 1 0 0 0 1 1h6a1 1 0 0 0 1-1zm-1-2a1 1 0 0 0-1 1v9h-4v-9a1 1 0 0 0-1-1h-.826L56 26.537 59.826 31zM4 45h8v2H4zm48 0h8v2h-8z"/>
</svg>
