<svg viewBox="0 0 512 512" xmlns="http://www.w3.org/2000/svg">
    <path d="M15 256c0-36.677 8.25-71.459 22.969-102.61v21.7c0 18.03 7.021 34.98 19.771 47.73l28.072 28.071c1.464 1.464 3.384 2.196 5.303 2.196s3.839-.732 5.303-2.196a7.5 7.5 0 0 0 0-10.607l-28.072-28.071c-9.916-9.916-15.377-23.1-15.377-37.123v-48.81C70.2 99.405 92.627 76.172 118.807 57.978l12.372 12.373a7.5 7.5 0 0 0 5.303 2.196h54.636a7.5 7.5 0 0 0 5.303-2.196l12.598-12.599a7.45 7.45 0 0 1 5.303-2.196h20.488c6.01 0 11.66 2.341 15.91 6.591l14.35 14.349a7.452 7.452 0 0 1 2.197 5.304v8.046c0 2.003-.78 3.887-2.197 5.303l-85.526 85.526a22.353 22.353 0 0 1-15.91 6.591h-10.663v-14.501a7.5 7.5 0 0 0-7.5-7.5H120.53a7.5 7.5 0 0 0-5.303 2.196l-24.814 24.814a14.904 14.904 0 0 0-4.394 10.606c0 4.007 1.561 7.774 4.394 10.607l59.614 59.613a7.502 7.502 0 0 0 11.362-.882l.92-1.261a22.572 22.572 0 0 1 18.176-9.238h41.48c10.017 0 19.434 3.9 26.517 10.983l29.4 29.401a22.348 22.348 0 0 1 6.59 15.909v12.471c0 6.01-2.34 11.66-6.59 15.91l-18.831 18.83a7.5 7.5 0 0 0-2.197 5.304v10.809c0 6.01-2.341 11.66-6.59 15.91l-21.037 21.036a7.5 7.5 0 0 0-2.197 5.304v34.972h-3.685l-10.566-10.565c-7.083-7.084-10.983-16.501-10.983-26.518v-50.122c0-1.989-.79-3.896-2.197-5.304l-43.332-43.332a22.35 22.35 0 0 1-6.59-15.91V296.65c0-1.989-.79-3.896-2.197-5.304l-31.06-31.061a7.501 7.501 0 0 0-10.606 10.607l28.863 28.863v7.052c0 10.017 3.901 19.435 10.984 26.518l41.135 41.135v47.016c0 14.023 5.461 27.207 15.377 37.124l10.567 10.566a14.9 14.9 0 0 0 10.605 4.393h3.685c8.271 0 15-6.729 15-15v-31.865l18.84-18.84c7.083-7.083 10.983-16.5 10.983-26.517v-7.702l16.634-16.634c7.083-7.083 10.984-16.5 10.984-26.517v-12.471c0-10.017-3.901-19.434-10.984-26.516l-29.4-29.402c-9.916-9.915-23.1-15.376-37.123-15.376h-41.48c-9.535 0-18.68 3.674-25.559 10.066l-53.906-53.905 22.618-22.618h14.335v7.001c0 8.271 6.729 15 15 15h10.663c10.017 0 19.434-3.9 26.517-10.983l85.527-85.527c4.25-4.25 6.59-9.9 6.59-15.909v-8.046c0-6.009-2.34-11.659-6.59-15.91l-14.35-14.349c-7.082-7.083-16.499-10.984-26.517-10.984h-20.488a22.353 22.353 0 0 0-15.91 6.59l-10.401 10.401h-48.422l-7.924-7.925C167.988 27.656 210.543 15 256 15c41.615 0 82.633 10.776 118.619 31.163a7.5 7.5 0 0 0 7.393-13.051C343.776 11.45 300.202 0 256 0 187.62 0 123.333 26.629 74.98 74.98S0 187.62 0 256c0 59.125 20.633 116.801 58.1 162.404a7.48 7.48 0 0 0 5.799 2.739 7.5 7.5 0 0 0 5.791-12.261C34.422 365.956 15 311.661 15 256z"/>
    <path d="M512 203.093c0-12.115-3.45-23.782-10-33.897V52.5C502 23.552 478.449 0 449.5 0S397 23.552 397 52.5v110.647h-7.123c-14.024 0-27.208 5.461-37.123 15.376l-14.701 14.701c-9.916 9.916-15.377 23.1-15.377 37.123v15.662c0 14.022 5.461 27.206 15.377 37.123l8.228 8.227c9.916 9.917 23.1 15.378 37.123 15.378h37.973v10.73c0 4.143 3.358 7.5 7.5 7.5s7.5-3.357 7.5-7.5v-18.23a7.5 7.5 0 0 0-7.5-7.5h-45.473c-10.017 0-19.434-3.9-26.517-10.984l-8.228-8.227c-7.083-7.084-10.983-16.501-10.983-26.517v-15.662c0-10.017 3.901-19.434 10.983-26.517l14.701-14.701c7.082-7.082 16.499-10.982 26.516-10.982h2.318a62.156 62.156 0 0 0-5.195 24.945c0 34.463 28.038 62.5 62.5 62.5 18.83 0 35.728-8.382 47.197-21.597.197 4 .303 8.005.303 12.004 0 54.98-18.52 105.708-49.63 146.305l-.01-.01c-7.083-7.084-10.983-16.501-10.983-26.518v-28.307c0-4.143-3.358-7.5-7.5-7.5s-7.5 3.357-7.5 7.5v28.307c0 14.023 5.461 27.207 15.377 37.124l1.087 1.087C393.623 464.816 328.501 497 256 497c-62.275 0-121.368-23.674-166.393-66.66a7.5 7.5 0 0 0-10.358 10.85C127.078 486.853 189.849 512 256 512c68.38 0 132.667-26.629 181.02-74.98S512 324.38 512 256c0-11.903-.835-23.862-2.463-35.578A62.296 62.296 0 0 0 512 203.093zm-62.5 47.5c-26.191 0-47.5-21.309-47.5-47.5 0-9.825 2.985-19.262 8.634-27.288a7.502 7.502 0 0 0 1.366-4.316V52.5c0-20.678 16.822-37.5 37.5-37.5S487 31.822 487 52.5v118.988a7.5 7.5 0 0 0 1.366 4.316c5.648 8.026 8.634 17.463 8.634 27.288 0 26.192-21.309 47.501-47.5 47.501z"/>
    <path d="M471.965 157.762c0-4.143-3.358-7.5-7.5-7.5s-7.5 3.357-7.5 7.5v25.303a7.5 7.5 0 0 0 3.006 6.004c4.467 3.344 7.029 8.455 7.029 14.023 0 9.649-7.851 17.5-17.5 17.5s-17.5-7.851-17.5-17.5c0-5.568 2.562-10.68 7.029-14.022a7.501 7.501 0 0 0 3.006-6.005V51.479c.489-3.533 3.579-6.352 7.164-6.473a7.464 7.464 0 0 1 5.479 2.102 7.436 7.436 0 0 1 2.288 5.393v75.259c0 4.143 3.358 7.5 7.5 7.5s7.5-3.357 7.5-7.5V52.5c0-6.154-2.438-11.899-6.863-16.178-4.425-4.276-10.251-6.512-16.412-6.309-11.249.382-20.543 9.118-21.621 20.323a7.486 7.486 0 0 0-.035.718v128.558c-6.342 6.09-10.035 14.611-10.035 23.479 0 17.921 14.58 32.5 32.5 32.5s32.5-14.579 32.5-32.5c0-8.868-3.693-17.39-10.035-23.479z"/>
</svg>
