<svg viewBox="0 0 511.958 511.958" xmlns="http://www.w3.org/2000/svg">
    <linearGradient id="a" x1="255.979" x2="255.979" y1="511.958" y2="0" gradientUnits="userSpaceOnUse">
        <stop offset="0" stop-color="#fd5900"/>
        <stop offset="1" stop-color="#ffde00"/>
    </linearGradient>
    <linearGradient id="b" x1="255.979" x2="255.979" y1="436.979" y2="74.979" gradientUnits="userSpaceOnUse">
        <stop offset="0" stop-color="#ffe59a"/>
        <stop offset="1" stop-color="#ffffd5"/>
    </linearGradient>
    <path fill="url(#a)" d="M507.1 276.466c6.477-12.829 6.477-28.146 0-40.975l-6.707-13.285a15.376 15.376 0 0 1-1.478-9.328l2.273-14.707c2.196-14.202-2.537-28.77-12.662-38.969l-10.483-10.562a15.369 15.369 0 0 1-4.288-8.416l-2.382-14.69c-2.276-14.028-11.105-26.302-23.66-32.927L434.815 85c-.25-.147-.503-.287-.761-.419a15.359 15.359 0 0 1-6.677-6.678l-6.806-13.234c-6.417-12.48-19.502-21.709-34.149-24.085l-14.689-2.382a15.38 15.38 0 0 1-8.416-4.287L352.755 23.43c-10.199-10.124-24.764-14.854-38.968-12.662l-14.707 2.273a15.369 15.369 0 0 1-9.329-1.477l-13.285-6.707c-12.828-6.476-28.145-6.477-40.973 0l-13.286 6.707a15.394 15.394 0 0 1-9.328 1.478l-14.707-2.273c-14.205-2.197-28.77 2.538-38.969 12.662L148.64 33.914a15.369 15.369 0 0 1-8.415 4.288l-14.691 2.382c-14.646 2.376-27.731 11.604-34.148 24.085l-6.805 13.234a15.369 15.369 0 0 1-6.679 6.678l-13.235 6.806c-12.48 6.417-21.709 19.502-24.084 34.148L38.2 140.226a15.366 15.366 0 0 1-4.288 8.415L23.43 159.203c-10.124 10.199-14.857 24.766-12.662 38.968l2.274 14.708a15.36 15.36 0 0 1-1.478 9.327l-6.707 13.285c-6.476 12.828-6.476 28.145 0 40.974l6.707 13.285a15.376 15.376 0 0 1 1.478 9.328l-2.274 14.708c-2.195 14.202 2.539 28.769 12.662 38.968l10.484 10.563a15.365 15.365 0 0 1 4.288 8.416l2.383 14.689c2.375 14.647 11.604 27.732 24.084 34.149l13.234 6.805a15.371 15.371 0 0 1 6.679 6.679l6.805 13.235c6.418 12.48 19.503 21.709 34.149 24.084l14.69 2.383a15.374 15.374 0 0 1 8.415 4.287l10.563 10.485c10.201 10.124 24.767 14.854 38.968 12.661l14.708-2.274a15.367 15.367 0 0 1 9.327 1.478l13.286 6.707a45.47 45.47 0 0 0 20.486 4.857 45.471 45.471 0 0 0 20.487-4.857l13.285-6.707a15.386 15.386 0 0 1 9.328-1.478l14.707 2.273c14.202 2.194 28.769-2.538 38.969-12.662l10.562-10.484a15.368 15.368 0 0 1 8.416-4.288l14.689-2.383c14.028-2.275 26.303-11.104 32.928-23.66l7.607-12.898c.147-.25.287-.503.419-.761a15.372 15.372 0 0 1 6.678-6.678l13.234-6.805c12.78-6.571 21.784-18.963 24.085-33.149l2.382-14.689a15.375 15.375 0 0 1 4.288-8.416 8433.21 8433.21 0 0 0 10.746-11.828c9.943-10.186 14.576-24.624 12.399-38.702l-2.273-14.707a15.371 15.371 0 0 1 1.477-9.329z"/>
    <path fill="url(#b)" d="M255.979 74.979c-99.371 0-181 81.651-181 181 0 99.371 81.651 181 181 181 99.371 0 181-81.651 181-181 0-99.371-81.652-181-181-181zm104.552 139.638-30 120a15 15 0 0 1-14.552 11.362h-120a15 15 0 0 1-14.552-11.362l-30-120a15.001 15.001 0 0 1 27.005-12.001c4.105 6.034 18.954 23.363 32.547 23.363 2.484 0 10.18-5.782 18.108-23.656 7.113-16.035 11.892-36.668 11.892-51.344 0-8.284 6.716-15 15-15s15 6.716 15 15c0 14.676 4.779 35.309 11.892 51.344 7.929 17.874 15.624 23.656 18.108 23.656 13.997 0 29.233-18.428 32.547-23.363a15.004 15.004 0 0 1 18.544-5.345 15.002 15.002 0 0 1 8.461 17.346z"/>
</svg>
