<svg viewBox="0 0 512 512" xmlns="http://www.w3.org/2000/svg">
    <path d="M307.753 161.632c0-28.535-23.215-51.75-51.75-51.75s-51.75 23.215-51.75 51.75 23.215 51.75 51.75 51.75 51.75-23.214 51.75-51.75zm-88.5 0c0-20.264 16.486-36.75 36.75-36.75s36.75 16.486 36.75 36.75-16.486 36.75-36.75 36.75-36.75-16.485-36.75-36.75z"/>
    <path d="M451.498 169.135c3.357 13.323 15.437 23.215 29.787 23.215 16.938 0 30.717-13.78 30.717-30.717 0-16.938-13.78-30.718-30.717-30.718-14.352 0-26.433 9.895-29.788 23.22H416.9a161.118 161.118 0 0 0-3.462-27h12.444c4.218 0 8.302-1.53 11.516-4.323l15.347-13.413a25.837 25.837 0 0 0 13.801 3.981c14.336 0 26-11.664 26-26s-11.664-26-26-26-26 11.664-26 26c0 3.824.837 7.454 2.326 10.728l-15.329 13.397a2.539 2.539 0 0 1-1.661.631h-16.436A160.726 160.726 0 0 0 376.9 54.658a7.499 7.499 0 0 0-10.585-.669 7.5 7.5 0 0 0-.67 10.585c23.478 26.649 36.407 60.914 36.407 96.482 0 38.129-14.603 74.206-41.119 101.584-14.639 15.123-22.701 35.205-22.701 56.546v24.19h-54.9l-.079-93.235a92.292 92.292 0 0 0 16.067-6.65l10.443 10.444c4.484 4.485 11.781 4.484 16.263 0l22.275-22.275a11.424 11.424 0 0 0 3.37-8.132c0-3.072-1.197-5.96-3.369-8.132l-10.443-10.444a92.228 92.228 0 0 0 6.65-16.067h14.775c6.341 0 11.5-5.159 11.5-11.5v-31.502c0-6.341-5.159-11.5-11.5-11.5H344.51a92.228 92.228 0 0 0-6.65-16.067l10.443-10.443c2.172-2.172 3.369-5.06 3.369-8.132s-1.197-5.96-3.369-8.132l-22.276-22.276c-4.483-4.484-11.78-4.482-16.263 0L299.32 79.777a92.292 92.292 0 0 0-16.067-6.65V58.35c0-6.341-5.159-11.5-11.5-11.5H240.25c-6.341 0-11.5 5.159-11.5 11.5v14.775a92.247 92.247 0 0 0-16.067 6.65L202.24 69.331c-4.483-4.484-11.78-4.483-16.263 0l-22.275 22.275c-2.173 2.172-3.37 5.061-3.37 8.133s1.196 5.959 3.369 8.132l10.443 10.443a92.228 92.228 0 0 0-6.65 16.067H152.72c-6.341 0-11.5 5.159-11.5 11.5v31.502c0 6.341 5.159 11.5 11.5 11.5h14.775a92.228 92.228 0 0 0 6.65 16.067l-10.442 10.443c-2.173 2.172-3.37 5.061-3.37 8.133s1.197 5.96 3.369 8.131l22.276 22.276c4.484 4.485 11.781 4.483 16.263 0l10.444-10.444a92.201 92.201 0 0 0 16.067 6.65l.001 93.235h-54.98v-24.19c0-21.392-8.019-41.427-22.578-56.414-27.327-28.152-41.967-65.291-41.223-104.573C111.488 78.823 176.812 15 256.03 15c.663 0 1.336.004 2.001.014 29.957.405 58.628 9.817 82.914 27.217a7.499 7.499 0 0 0 10.465-1.729 7.5 7.5 0 0 0-1.729-10.465C322.892 10.844 291.27.463 258.234.015c-43.011-.581-83.626 15.45-114.341 45.146-19.45 18.804-33.541 41.755-41.478 66.973H86.123a2.525 2.525 0 0 1-1.645-.617l-15.345-13.41a25.838 25.838 0 0 0 2.326-10.728c0-14.336-11.664-26-26-26s-26 11.664-26 26 11.664 26 26 26c5.068 0 9.798-1.463 13.801-3.981l15.363 13.427a17.538 17.538 0 0 0 11.5 4.309H98.48a163.664 163.664 0 0 0-3.388 27H60.508c-3.355-13.325-15.436-23.22-29.788-23.22-16.938 0-30.717 13.78-30.717 30.718s13.78 30.717 30.717 30.717c14.35 0 26.43-9.892 29.787-23.215h34.644a161.724 161.724 0 0 0 3.615 27H86.123a17.495 17.495 0 0 0-11.516 4.323l-15.344 13.41a25.834 25.834 0 0 0-13.804-3.982c-14.336 0-26 11.664-26 26s11.664 26 26 26 26-11.664 26-26c0-3.823-.836-7.452-2.324-10.724l15.344-13.41a2.464 2.464 0 0 1 1.644-.616h16.736c7.505 23.02 20.212 44.199 37.574 62.086 11.826 12.174 18.339 28.498 18.339 45.964v24.844c-10.318 2.479-18.01 11.779-18.01 22.846v17c0 10.254 6.604 18.99 15.78 22.191v21.309h-9.049a7.5 7.5 0 0 0 0 15h9.049v7.5c0 17.369 14.131 31.5 31.5 31.5h3.26v11.13c0 10.752 8.748 19.5 19.5 19.5h90.4c10.752 0 19.5-8.748 19.5-19.5v-11.13h3.26c17.369 0 31.5-14.131 31.5-31.5v-7.5h9.049a7.5 7.5 0 0 0 0-15h-9.049v-21.309c9.176-3.202 15.78-11.937 15.78-22.191v-17c0-11.067-7.693-20.366-18.01-22.846v-24.844c0-17.426 6.562-33.803 18.477-46.112 17.248-17.809 29.921-38.958 37.418-61.938h16.755c.614 0 1.182.213 1.645.618l15.343 13.409a25.837 25.837 0 0 0-2.324 10.724c0 14.336 11.664 26 26 26s26-11.664 26-26-11.664-26-26-26c-5.069 0-9.8 1.464-13.804 3.982l-15.343-13.409a17.488 17.488 0 0 0-11.517-4.324h-12.656a161.547 161.547 0 0 0 3.624-27zm15.048-92.756c6.065 0 11 4.935 11 11s-4.935 11-11 11-11-4.935-11-11 4.935-11 11-11zm-421.087 22c-6.065 0-11-4.935-11-11s4.935-11 11-11 11 4.935 11 11-4.935 11-11 11zm0 148.506c-6.065 0-11-4.935-11-11s4.935-11 11-11 11 4.935 11 11-4.935 11-11 11zM30.72 177.35c-8.667 0-15.717-7.051-15.717-15.717 0-8.667 7.051-15.718 15.717-15.718s15.717 7.051 15.717 15.718c0 8.666-7.051 15.717-15.717 15.717zm187.01 51.801c-4.477-2.541-10.148-1.771-13.792 1.872l-9.83 9.83-17.326-17.326 9.829-9.83c3.644-3.644 4.413-9.315 1.871-13.793a77.144 77.144 0 0 1-7.279-17.589c-1.367-4.964-5.922-8.431-11.076-8.431H156.22v-24.502h13.907c5.154 0 9.709-3.467 11.076-8.43a77.18 77.18 0 0 1 7.28-17.59c2.542-4.478 1.773-10.149-1.871-13.793l-9.83-9.83 17.326-17.326 9.83 9.83c3.644 3.644 9.315 4.413 13.792 1.871a77.184 77.184 0 0 1 17.59-7.28c4.963-1.367 8.43-5.922 8.43-11.076V61.85h24.503v13.907c0 5.154 3.467 9.709 8.43 11.076a77.165 77.165 0 0 1 17.59 7.28c4.476 2.542 10.148 1.772 13.793-1.871l9.83-9.83 17.326 17.326-9.83 9.83c-3.644 3.644-4.413 9.315-1.871 13.793a77.133 77.133 0 0 1 7.279 17.59c1.367 4.963 5.922 8.43 11.076 8.43h13.907v24.502h-13.907c-5.154 0-9.709 3.467-11.076 8.43a77.226 77.226 0 0 1-7.28 17.591c-2.542 4.478-1.772 10.149 1.871 13.792l9.829 9.83-17.326 17.326-9.831-9.831c-3.644-3.642-9.315-4.411-13.792-1.87a77.162 77.162 0 0 1-17.592 7.28c-4.962 1.369-8.428 5.923-8.428 11.076v13.907h-24.503v-13.907c0-5.153-3.466-9.707-8.43-11.076a77.135 77.135 0 0 1-17.588-7.28zm26.023 47.264h24.58v66.96h-24.58zm61.95 216.09c0 2.481-2.019 4.5-4.5 4.5h-90.4a4.505 4.505 0 0 1-4.5-4.5v-11.13h99.4zm34.759-42.63c0 9.098-7.402 16.5-16.5 16.5h-135.92c-9.098 0-16.5-7.402-16.5-16.5v-7.5h168.92zm15.781-83v17c0 4.687-3.813 8.5-8.5 8.5h-125.29a7.5 7.5 0 0 0 0 15h118.01v20h-168.92v-20h15.91a7.5 7.5 0 0 0 0-15h-23.19c-4.687 0-8.5-3.813-8.5-8.5v-17c0-4.687 3.813-8.5 8.5-8.5h183.48c4.687 0 8.5 3.813 8.5 8.5zm121.303-130.99c0 6.065-4.935 11-11 11s-11-4.935-11-11 4.935-11 11-11 11 4.935 11 11zm3.739-89.97c8.667 0 15.717 7.051 15.717 15.718s-7.051 15.717-15.717 15.717-15.717-7.051-15.717-15.717c0-8.668 7.051-15.718 15.717-15.718z"/>
</svg>
