<svg image-rendering="optimizeQuality" shape-rendering="geometricPrecision" text-rendering="geometricPrecision" viewBox="0 0 6.827 6.827" xmlns="http://www.w3.org/2000/svg">
    <path d="M.656 6.34H6.17v-.604H.656zm5.585.14H.586a.07.07 0 0 1-.07-.07v-.745a.07.07 0 0 1 .07-.07H6.24a.07.07 0 0 1 .07.07v.745a.07.07 0 0 1-.07.07z"/>
    <path d="M2.675 5.736a.07.07 0 0 1-.07-.07V3.268a.146.146 0 0 0-.146-.146H1.207a.146.146 0 0 0-.146.146v2.396a.07.07 0 0 1-.14 0V3.27c0-.158.128-.286.286-.286h1.252c.158 0 .287.128.287.286v2.396a.07.07 0 0 1-.07.07z"/>
    <path d="M2.36 3.123a.07.07 0 0 1-.07-.061l-.195-1.584h-.524l-.195 1.584a.07.07 0 0 1-.14-.018L1.44 1.4a.07.07 0 0 1 .07-.062h.648a.07.07 0 0 1 .07.062l.202 1.645a.07.07 0 0 1-.07.08zm3.373 2.613a.07.07 0 0 1-.07-.07V3.241a.342.342 0 0 0-.683 0v2.423a.07.07 0 1 1-.14 0V3.242a.482.482 0 0 1 .963 0v2.423a.07.07 0 0 1-.07.07zm-1.352 0a.07.07 0 0 1-.07-.07V3.241a.342.342 0 0 0-.683 0v2.423a.07.07 0 0 1-.14 0V3.242a.482.482 0 0 1 .963 0v2.423a.07.07 0 0 1-.07.07z"/>
    <path d="M5.322 2.901a.07.07 0 0 1-.07-.07v-.425a.355.355 0 0 0-.355-.354h-.503a.355.355 0 0 0-.354.354v.425a.07.07 0 0 1-.14 0v-.425c0-.272.221-.494.494-.494h.503c.273 0 .495.222.495.494v.425a.07.07 0 0 1-.07.07zm-.941.803h-.823a.07.07 0 0 1 0-.14h.823a.07.07 0 0 1 0 .14zm0 .569h-.823a.07.07 0 0 1 0-.14h.823a.07.07 0 0 1 0 .14zm1.352-.569H4.91a.07.07 0 0 1 0-.14h.823a.07.07 0 0 1 0 .14zm0 .569H4.91a.07.07 0 0 1 0-.14h.823a.07.07 0 0 1 0 .14zM1.829 1.211a.07.07 0 0 1-.06-.107c.19-.313.476-.25.705-.2.26.055.424.079.556-.138a.07.07 0 1 1 .12.073c-.19.313-.476.251-.705.202-.26-.057-.425-.08-.556.136a.07.07 0 0 1-.06.034zm0-.386a.07.07 0 0 1-.06-.107c.19-.313.476-.25.705-.2.26.055.424.079.556-.138a.07.07 0 1 1 .12.073c-.19.313-.476.251-.705.202-.26-.057-.425-.08-.556.136a.07.07 0 0 1-.06.034zm.846 3.055H.99a.07.07 0 1 1 0-.14h1.685a.07.07 0 0 1 0 .14z"/>
    <path d="M1.833 5.736a.07.07 0 0 1-.07-.07V3.81a.07.07 0 1 1 .14 0v1.854a.07.07 0 0 1-.07.07z"/>
</svg>
